<mxfile host="65bd71144e">
    <diagram id="EMDML1I7FDlM2kHfjbD_" name="第 1 页">
        <mxGraphModel dx="937" dy="529" grid="1" gridSize="10" guides="1" tooltips="1" connect="1" arrows="1" fold="1" page="1" pageScale="1" pageWidth="827" pageHeight="1169" background="#ffffff" math="0" shadow="0">
            <root>
                <mxCell id="0"/>
                <mxCell id="1" parent="0"/>
                <mxCell id="7" style="edgeStyle=orthogonalEdgeStyle;html=1;entryX=0;entryY=0.5;entryDx=0;entryDy=0;strokeColor=#000000;" parent="1" source="2" target="3" edge="1">
                    <mxGeometry relative="1" as="geometry"/>
                </mxCell>
                <mxCell id="2" value="&lt;font color=&quot;#ffffff&quot;&gt;Actions&lt;/font&gt;" style="rounded=0;whiteSpace=wrap;html=1;fillColor=#6666FF;strokeColor=none;" parent="1" vertex="1">
                    <mxGeometry x="50" y="120" width="80" height="40" as="geometry"/>
                </mxCell>
                <mxCell id="8" style="edgeStyle=orthogonalEdgeStyle;html=1;entryX=0;entryY=0.5;entryDx=0;entryDy=0;strokeColor=#000000;" parent="1" source="3" target="4" edge="1">
                    <mxGeometry relative="1" as="geometry"/>
                </mxCell>
                <mxCell id="3" value="&lt;font color=&quot;#ffffff&quot;&gt;Reducer&lt;/font&gt;" style="rounded=0;whiteSpace=wrap;html=1;fillColor=#6666FF;strokeColor=none;" parent="1" vertex="1">
                    <mxGeometry x="170" y="120" width="80" height="40" as="geometry"/>
                </mxCell>
                <mxCell id="9" style="edgeStyle=orthogonalEdgeStyle;html=1;strokeColor=#000000;exitX=0.5;exitY=1;exitDx=0;exitDy=0;entryX=1;entryY=0.5;entryDx=0;entryDy=0;" parent="1" source="4" target="5" edge="1">
                    <mxGeometry relative="1" as="geometry">
                        <mxPoint x="260" y="250" as="targetPoint"/>
                    </mxGeometry>
                </mxCell>
                <mxCell id="4" value="&lt;font color=&quot;#ffffff&quot;&gt;Store&lt;/font&gt;" style="rounded=0;whiteSpace=wrap;html=1;fillColor=#6666FF;strokeColor=none;" parent="1" vertex="1">
                    <mxGeometry x="290" y="120" width="80" height="40" as="geometry"/>
                </mxCell>
                <mxCell id="6" style="edgeStyle=orthogonalEdgeStyle;html=1;entryX=0.5;entryY=1;entryDx=0;entryDy=0;strokeColor=#000000;" parent="1" source="5" target="2" edge="1">
                    <mxGeometry relative="1" as="geometry"/>
                </mxCell>
                <mxCell id="12" style="edgeStyle=none;html=1;entryX=0.5;entryY=1;entryDx=0;entryDy=0;" parent="1" source="5" target="3" edge="1">
                    <mxGeometry relative="1" as="geometry"/>
                </mxCell>
                <mxCell id="5" value="&lt;font color=&quot;#ffffff&quot;&gt;View&lt;/font&gt;" style="rounded=0;whiteSpace=wrap;html=1;fillColor=#6666FF;strokeColor=none;" parent="1" vertex="1">
                    <mxGeometry x="170" y="230" width="80" height="40" as="geometry"/>
                </mxCell>
                <mxCell id="10" value="dispatch" style="text;html=1;strokeColor=none;fillColor=none;align=center;verticalAlign=middle;whiteSpace=wrap;rounded=0;fontColor=#000000;" parent="1" vertex="1">
                    <mxGeometry x="100" y="220" width="60" height="30" as="geometry"/>
                </mxCell>
                <mxCell id="11" value="subscribe" style="text;html=1;strokeColor=none;fillColor=none;align=center;verticalAlign=middle;whiteSpace=wrap;rounded=0;fontColor=#000000;" parent="1" vertex="1">
                    <mxGeometry x="260" y="220" width="60" height="30" as="geometry"/>
                </mxCell>
            </root>
        </mxGraphModel>
    </diagram>
</mxfile>